<svg xmlns="http://www.w3.org/2000/svg" version="1.1" xmlns:xlink="http://www.w3.org/1999/xlink" xmlns:svgjs="http://svgjs.dev/svgjs" width="2160" height="3840" preserveAspectRatio="none" viewBox="0 0 2160 3840"><g mask="url(&quot;#SvgjsMask1026&quot;)" fill="none"><rect width="2160" height="3840" x="0" y="0" fill="rgba(25, 30, 46, 1)"></rect><path d="M2135.273,2760.81C2318.273,2760.349,2490.51,2659.362,2574.071,2496.552C2651.603,2345.49,2598.144,2172.036,2512.793,2025.25C2428.025,1879.467,2303.706,1750.182,2135.273,1741.911C1953.531,1732.987,1779.428,1827.657,1687.566,1984.728C1594.847,2143.265,1600.853,2339.686,1692.627,2498.773C1784.458,2657.958,1951.5,2761.273,2135.273,2760.81" fill="rgba(19, 46, 101, 0.61)" class="triangle-float2"></path><path d="M2298.537993005463 1792.468947154099L1735.7459410001784 1901.3081249108823 2057.8366555146804 2285.1608910747764z" fill="rgba(19, 46, 101, 0.61)" class="triangle-float1"></path><path d="M921.6422300349939 2871.5119947065996L1359.8493585846247 3280.1467529321953 1768.4841168102205 2841.9396243825645 1330.2769882605896 2433.3048661569687z" fill="rgba(19, 46, 101, 0.61)" class="triangle-float2"></path><path d="M164.85377401727047 291.5374602433243L-147.06241752530346 436.9863690621679-1.613508706459811 748.9025606047419 310.3026828361141 603.4536517858983z" fill="rgba(19, 46, 101, 0.61)" class="triangle-float1"></path><path d="M501.0110132082958 694.1782333129568L688.0680675593183 416.8547456471645 178.55430888511873 274.9309079535269z" fill="rgba(19, 46, 101, 0.61)" class="triangle-float3"></path><path d="M2020.057,4167.565C2216.741,4167.161,2381.609,4039.241,2484.122,3871.385C2591.971,3694.792,2649.511,3478.835,2552.206,3296.221C2449.922,3104.263,2237.55,2997.931,2020.057,3000.463C1806.894,3002.945,1609.576,3120.436,1508.945,3308.366C1413.384,3486.826,1449.183,3699.319,1552.678,3873.298C1653.557,4042.879,1822.739,4167.97,2020.057,4167.565" fill="rgba(19, 46, 101, 0.61)" class="triangle-float2"></path><path d="M601.1173835993291 1600.3232501709656L245.20544765579996 2054.9759717587926 743.7234435621472 2133.933465532129z" fill="rgba(19, 46, 101, 0.61)" class="triangle-float2"></path><path d="M985.271,3811.444C1172.997,3821.622,1340.304,3700.004,1434.415,3537.253C1528.642,3374.301,1540.861,3174.512,1448.38,3010.563C1354.325,2843.824,1176.253,2727.833,985.271,2741.019C810.905,2753.057,698.616,2911.034,621.09,3067.68C553.72,3203.804,546.445,3356.324,613.237,3492.733C690.203,3649.92,810.509,3801.969,985.271,3811.444" fill="rgba(19, 46, 101, 0.61)" class="triangle-float2"></path></g><defs><mask id="SvgjsMask1026"><rect width="2160" height="3840" fill="#ffffff"></rect></mask><style>
                @keyframes float1 {
                    0%{transform: translate(0, 0)}
                    50%{transform: translate(-10px, 0)}
                    100%{transform: translate(0, 0)}
                }

                .triangle-float1 {
                    animation: float1 5s infinite;
                }

                @keyframes float2 {
                    0%{transform: translate(0, 0)}
                    50%{transform: translate(-5px, -5px)}
                    100%{transform: translate(0, 0)}
                }

                .triangle-float2 {
                    animation: float2 4s infinite;
                }

                @keyframes float3 {
                    0%{transform: translate(0, 0)}
                    50%{transform: translate(0, -10px)}
                    100%{transform: translate(0, 0)}
                }

                .triangle-float3 {
                    animation: float3 6s infinite;
                }
            </style></defs></svg>