<svg xmlns="http://www.w3.org/2000/svg" version="1.1" xmlns:xlink="http://www.w3.org/1999/xlink" xmlns:svgjs="http://svgjs.dev/svgjs" width="1440" height="560" preserveAspectRatio="none" viewBox="0 0 1440 560">
    <g mask="url(&quot;#SvgjsMask1413&quot;)" fill="none">
        <rect width="1440" height="560" x="0" y="0" fill="url(&quot;#SvgjsRadialGradient1414&quot;)"></rect>
        <path d="M961.993,254.143C979.982,253.757,995.797,242.685,1004.308,226.832C1012.372,211.812,1010.779,193.92,1002.254,179.157C993.73,164.396,979.028,154.134,961.993,153.556C943.905,152.942,926.089,160.779,916.705,176.254C906.986,192.28,906.992,212.514,916.413,228.717C925.786,244.837,943.35,254.543,961.993,254.143" fill="rgba(28, 83, 142, 0.4)" class="triangle-float3"></path>
        <path d="M1099.786,301.968C1132.075,300.218,1154.061,273.293,1170.462,245.425C1187.19,217,1200.751,184.294,1186.56,154.521C1170.569,120.972,1136.947,97.689,1099.786,97.147C1061.76,96.592,1026.697,118.522,1008.514,151.924C991.069,183.971,995.506,222.706,1014.468,253.879C1032.652,283.773,1064.847,303.861,1099.786,301.968" fill="rgba(28, 83, 142, 0.4)" class="triangle-float1"></path>
        <path d="M159.637,271.724C194.659,271.122,230.599,260.609,248.625,230.576C267.107,199.784,262.151,161.478,244.62,130.135C226.611,97.937,196.528,71.757,159.637,71.476C122.335,71.192,91.152,96.585,72.385,128.824C53.486,161.291,45.61,201.667,65.187,233.73C84.141,264.773,123.27,272.349,159.637,271.724" fill="rgba(28, 83, 142, 0.4)" class="triangle-float2"></path>
        <path d="M350.7,480.88C387.741,480.414,417.947,453.423,435.029,420.552C450.758,390.285,446.839,355.671,431.635,325.137C414.177,290.077,389.791,253.611,350.7,251.194C308.5,248.585,269.665,276.316,250.35,313.928C232.482,348.722,242.466,389.196,262.616,422.72C282.043,455.041,312.993,481.354,350.7,480.88" fill="rgba(28, 83, 142, 0.4)" class="triangle-float2"></path>
        <path d="M538.962,670.67C573.566,669.161,593.708,634.329,608.312,602.921C620.302,577.134,620.186,548.765,607.475,523.326C593.016,494.387,571.258,465.996,538.962,464.123C504.085,462.1,472.1,483.944,455.143,514.489C438.664,544.173,442.221,579.551,458.276,609.466C475.385,641.346,502.815,672.247,538.962,670.67" fill="rgba(28, 83, 142, 0.4)" class="triangle-float2"></path>
        <path d="M741.711,300.123C757.376,300.516,773.524,295.465,781.695,282.094C790.175,268.219,789.088,250.424,780.537,236.593C772.402,223.434,757.182,217.449,741.711,217.415C726.172,217.381,710.428,223.005,702.591,236.423C694.695,249.941,696.863,266.832,705.056,280.172C712.859,292.877,726.806,299.749,741.711,300.123" fill="rgba(28, 83, 142, 0.4)" class="triangle-float2"></path>
        <path d="M1142.294,484.191C1193.053,484.101,1248.906,482.258,1277.407,440.256C1308.813,393.973,1306.072,332.275,1278.336,283.705C1250.371,234.734,1198.559,199.856,1142.294,203.655C1090.787,207.133,1060.422,255.37,1034.743,300.154C1009.255,344.604,980.499,396.496,1006.352,440.735C1032.079,484.758,1091.305,484.281,1142.294,484.191" fill="rgba(28, 83, 142, 0.4)" class="triangle-float3"></path>
        <path d="M689.178,310.539C730.129,308.702,759.627,273.853,777.034,236.741C791.792,205.276,787.358,169.451,769.274,139.773C751.989,111.406,722.394,92.903,689.178,92.557C655.348,92.204,625.01,109.994,606.137,138.073C584.415,170.39,569.628,210.202,586.521,245.286C605.374,284.442,645.764,312.486,689.178,310.539" fill="rgba(28, 83, 142, 0.4)" class="triangle-float1"></path>
        <path d="M49.12,165.472C69.791,164.308,88.821,154.138,99.121,136.178C109.369,118.308,108.203,96.942,98.988,78.518C88.536,57.622,72.451,37.46,49.12,36.213C24.064,34.873,1.54,50.866,-10.928,72.641C-23.316,94.277,-25.232,121.486,-11.691,142.419C0.928,161.927,25.923,166.778,49.12,165.472" fill="rgba(28, 83, 142, 0.4)" class="triangle-float1"></path>
        <path d="M1408.493,422.629C1457.754,424.168,1507.779,403.434,1531.537,360.253C1554.623,318.295,1539.537,268.85,1516.072,227.103C1491.989,184.257,1457.643,141.117,1408.493,141.346C1359.597,141.573,1325.253,184.745,1302.634,228.096C1281.985,267.672,1276.747,313.748,1298.084,352.958C1320.378,393.927,1361.874,421.172,1408.493,422.629" fill="rgba(28, 83, 142, 0.4)" class="triangle-float1"></path>
        <path d="M1409.947,690.952C1449.546,692.636,1489.563,674.828,1508.499,640.009C1526.773,606.408,1514.953,566.647,1495.442,533.749C1476.416,501.669,1447.238,473.129,1409.947,473.835C1373.545,474.524,1347.103,504.805,1329.88,536.883C1313.749,566.927,1309.194,601.942,1324.919,632.2C1341.946,664.964,1373.056,689.383,1409.947,690.952" fill="rgba(28, 83, 142, 0.4)" class="triangle-float3"></path>
        <path d="M511.933,534.922C571.033,536.303,614.572,485.896,643.191,434.169C670.711,384.429,684.095,324.629,655.452,275.526C626.988,226.729,568.415,210.217,511.933,209.151C453.055,208.04,387.192,218.382,358.718,269.928C330.806,320.457,361.996,378.297,390.89,428.271C419.739,478.167,454.313,533.575,511.933,534.922" fill="rgba(28, 83, 142, 0.4)" class="triangle-float3"></path>
        <path d="M604.289,282.407C636.892,282.559,660.804,255.027,676.29,226.336C690.865,199.332,694.672,167.96,680.849,140.564C665.495,110.132,638.337,85.249,604.289,83.634C567.632,81.895,530.401,99.81,514.02,132.649C498.866,163.029,515.913,196.596,533.439,225.672C550.18,253.445,571.861,282.256,604.289,282.407" fill="rgba(28, 83, 142, 0.4)" class="triangle-float3"></path>
        <path d="M1143.331,355.489C1169.252,355.383,1192.513,342.589,1207.338,321.326C1225.108,295.839,1241.073,263.802,1226.321,236.457C1211.122,208.283,1175.34,202.272,1143.331,202.677C1112.201,203.071,1078.795,211.174,1063.902,238.513C1049.445,265.053,1061.433,296.85,1078.41,321.853C1093.084,343.464,1117.209,355.596,1143.331,355.489" fill="rgba(28, 83, 142, 0.4)" class="triangle-float1"></path>
        <path d="M427.366,361.098C461.464,358.814,482.971,327.608,498.532,297.182C512.398,270.07,519.148,238.263,503.573,212.096C488.289,186.418,457.249,177.546,427.366,177.621C397.641,177.696,368.688,188.003,351.818,212.477C332.241,240.879,321.892,277.215,337.523,307.965C354.421,341.208,390.158,363.59,427.366,361.098" fill="rgba(28, 83, 142, 0.4)" class="triangle-float2"></path>
        <path d="M482.383,185.623C510.962,186.342,539.294,174.552,554.076,150.082C569.335,124.824,567.549,93.57,553.75,67.486C538.906,39.426,514.102,15.812,482.383,14.557C448.707,13.225,415.528,31.25,400.516,61.424C386.715,89.163,399.621,120.758,416.673,146.627C431.697,169.419,455.094,184.937,482.383,185.623" fill="rgba(28, 83, 142, 0.4)" class="triangle-float3"></path>
        <path d="M1127.869,260.808C1154.66,261.884,1183.297,253.816,1196.523,230.492C1209.621,207.395,1199.871,179.942,1186.848,156.803C1173.491,133.07,1155.101,108.865,1127.869,108.507C1100.216,108.143,1078.728,130.592,1066.14,155.216C1054.732,177.531,1055.497,203.7,1068.145,225.336C1080.67,246.761,1103.072,259.812,1127.869,260.808" fill="rgba(28, 83, 142, 0.4)" class="triangle-float3"></path>
        <path d="M863.112,494.698C899.907,495.534,931.22,469.961,948.915,437.69C965.902,406.711,965.415,369.869,948.598,338.797C930.873,306.048,900.329,277.916,863.112,279.162C827.362,280.359,803.308,312.373,786.996,344.207C772.367,372.756,769.326,405.315,783.804,433.941C799.914,465.792,827.428,493.888,863.112,494.698" fill="rgba(28, 83, 142, 0.4)" class="triangle-float1"></path>
        <path d="M1426.766,701.069C1476.267,699.228,1522.417,677.188,1548.81,635.27C1577.142,590.273,1585.076,534.676,1561.564,486.982C1535.118,433.335,1486.546,389.624,1426.766,387.703C1364.072,385.688,1305.869,422.607,1276.077,477.807C1247.641,530.495,1254.42,595.347,1287.915,644.973C1317.846,689.319,1373.301,703.058,1426.766,701.069" fill="rgba(28, 83, 142, 0.4)" class="triangle-float2"></path>
        <path d="M199.277,220.787C234.157,219.111,268.418,206.806,286.688,177.047C305.795,145.925,307.874,106.038,288.873,74.852C270.536,44.756,234.49,32.152,199.277,33.582C166.626,34.908,139.774,54.589,121.46,81.653C99.914,113.494,77.23,152.655,95.997,186.209C114.991,220.169,160.411,222.654,199.277,220.787" fill="rgba(28, 83, 142, 0.4)" class="triangle-float3"></path>
    </g>
    <defs>
        <mask id="SvgjsMask1413">
            <rect width="1440" height="560" fill="#ffffff"></rect>
        </mask>
        <radialGradient cx="50%" cy="0%" r="912.14" gradientUnits="userSpaceOnUse" id="SvgjsRadialGradient1414">
            <stop stop-color="#0e2a47" offset="0"></stop>
            <stop stop-color="rgba(4, 16, 41, 1)" offset="1"></stop>
        </radialGradient>
       <style>
            @keyframes float1 {
                0% { transform: translate(0, 0); }
                50% { transform: translate(-50px, 0); }
                100% { transform: translate(0, 0); }
            }
            .triangle-float1 {
                animation: float1 9s infinite;
                animation-delay: random(0s, 1s); 
            }

            @keyframes float2 {
                0% { transform: translate(0, 0); }
                50% { transform: translate(-10px, -10px); }
                100% { transform: translate(0, 0); }
            }
            .triangle-float2 {
                animation: float2 9s infinite;
                animation-delay: random(0s, 1s); 
            }

            @keyframes float3 {
                0% { transform: translate(0, 0); }
                50% { transform: translate(-10px, -50px); }
                100% { transform: translate(0, 0); }
            }
            .triangle-float3 {
                animation: float3 9s infinite;
                animation-delay: random(0s, 2s); 
            }
        </style>
    </defs>
</svg>